<svg xmlns="http://www.w3.org/2000/svg" viewBox="0 0 256 262">
  <path fill="#4285F4" d="M255.86 133.45c0-10.87-.89-18.78-2.81-27.03H130.55v49.18h72.52c-1.46 12.23-9.34 30.63-26.83 43.01l-.25 1.68 38.87 30.17 2.69.27c24.67-22.77 38.31-56.28 38.31-97.29z"/>
  <path fill="#34A853" d="M130.55 261.1c35.24 0 64.91-11.49 86.54-31.24l-41.26-32.01c-11.01 7.69-25.82 13.04-45.28 13.04-34.53 0-63.82-22.77-74.2-54.25l-1.54.13L11.09 188.7l-.5 1.45c21.46 42.67 65.65 70.94 119.96 70.94z"/>
  <path fill="#FBBC05" d="M56.35 156.64a77.94 77.94 0 0 1-4.14-25.27c0-8.82 1.57-17.33 4.02-25.27l-.07-1.69L13.6 72.14l-1.32.62C4.59 90.26 0 110.62 0 131.37c0 20.75 4.59 41.11 12.28 58.61l44.07-33.34z"/>
  <path fill="#EA4335" d="M130.55 50.9c24.52 0 41.05 10.64 50.45 19.53l36.81-35.94C195.33 12.52 165.8 0 130.55 0 76.24 0 32.05 28.27 10.59 70.92l44.04 33.34c10.49-31.49 39.78-53.36 75.92-53.36z"/>
</svg>
